<svg xmlns="http://www.w3.org/2000/svg" version="1.1" xmlns:xlink="http://www.w3.org/1999/xlink" xmlns:svgjs="http://svgjs.com/svgjs" id="Pattern604SvgRootPreview" width="100%" height="100%"><defs><pattern x="0" y="0" width="1" height="1" patternUnits="userSpaceOnUse" id="Pattern604Layer1"><g id="PatternRootContent1"><g id="Pattern604Layer1background"><rect width="1" height="1" id="Pattern604Background1" fill="#b0b0b0"></rect></g></g></pattern><pattern x="0" y="0" width="40" height="68" patternUnits="userSpaceOnUse" id="Pattern604Layer2" patternTransform="matrix(0.8,0,0,0.8,0,0)"><g id="PatternRootContent2"><g id="Pattern604Layer2Element1"><use xlink:href="#Pattern604Element1" x="20" y="-37" transform="translate(40, -17) scale(1) translate(-40, 17) rotate(0, 40, -17)"></use><use xlink:href="#Pattern604Element1" x="-20" y="-37" transform="translate(0, -17) scale(1) translate(0, 17) rotate(0, 0, -17)"></use><use xlink:href="#Pattern604Element1" x="0" y="-3" transform="translate(20, 17) scale(1) translate(-20, -17) rotate(0, 20, 17)"></use><use xlink:href="#Pattern604Element1" x="-40" y="-3" transform="translate(-20, 17) scale(1) translate(20, -17) rotate(0, -20, 17)"></use><use xlink:href="#Pattern604Element1" x="20" y="31" transform="translate(40, 51) scale(1) translate(-40, -51) rotate(0, 40, 51)"></use><use xlink:href="#Pattern604Element1" x="-20" y="31" transform="translate(0, 51) scale(1) translate(0, -51) rotate(0, 0, 51)"></use><use xlink:href="#Pattern604Element1" x="0" y="65" transform="translate(20, 85) scale(1) translate(-20, -85) rotate(0, 20, 85)"></use><use xlink:href="#Pattern604Element1" x="0" y="65" transform="translate(20, 85) scale(1) translate(-20, -85) rotate(0, 20, 85)"></use></g></g></pattern><symbol id="Pattern604Element1"><path d="M20,40C8.972,40,0,31.028,0,20C0,8.972,8.972,0,20,0c11.028,0,20,8.972,20,20C40,31.028,31.028,40,20,40z M20,1.612C9.861,1.612,1.612,9.861,1.612,20c0,10.139,8.249,18.388,18.388,18.388S38.388,30.139,38.388,20C38.388,9.861,30.139,1.612,20,1.612z M20,8.433C13.611,8.433,8.433,13.612,8.433,20c0,6.389,5.179,11.568,11.567,11.568c6.389,0,11.567-5.179,11.567-11.568C31.567,13.612,26.388,8.433,20,8.433z M20,24.72c-2.607,0-4.72-2.113-4.72-4.72c0-2.607,2.113-4.72,4.72-4.72c2.607,0,4.72,2.113,4.72,4.72S22.607,24.72,20,24.72z" class="fill_color_0" fill="#917a7a"></path></symbol></defs><rect width="100%" height="100%" id="Pattern604RctLayer1" fill="url(#Pattern604Layer1)"></rect><rect width="100%" height="100%" id="Pattern604RctLayer2" fill="url(#Pattern604Layer2)"></rect></svg>